<svg width="167" height="54" viewBox="0 0 167 54" fill="none" xmlns="http://www.w3.org/2000/svg">
<path d="M25.2771 54.0002C26.6814 54.0002 28.2133 53.6172 29.3622 52.7236C30.6388 51.9577 31.5325 50.8087 32.1708 49.4045C32.2984 49.2768 32.2984 49.1492 32.2984 48.8938C32.2984 48.7662 32.1708 48.6385 32.1708 48.3832C32.0431 48.2555 31.9154 48.1279 31.7878 48.0002C31.6601 47.8726 31.5325 47.8726 31.2771 47.8726H19.2771C19.1495 47.8726 18.8942 47.8726 18.7665 48.0002C18.6388 48.1279 18.5112 48.1279 18.3835 48.3832C18.2559 48.5109 18.2559 48.6385 18.2559 48.8938C18.2559 49.0215 18.2559 49.2768 18.3835 49.4045C19.0218 50.6811 19.9154 51.83 21.192 52.596C22.4686 53.6172 23.8729 54.0002 25.2771 54.0002Z" fill="url(#paint0_linear_178_13)"/>
<path d="M43.656 40.9789C43.1454 40.9789 42.7624 40.8513 42.2517 40.7236C41.8688 40.596 41.4858 40.3406 41.1028 39.9577C40.7198 39.5747 40.4645 39.1917 40.3368 38.8087C40.2092 38.4257 40.0815 37.9151 40.0815 37.4045V25.0215C40.0815 18.5108 35.9964 12.7662 30.1241 10.7236C29.8688 10.596 29.6134 10.4683 29.3581 10.213C29.1028 9.95765 28.9751 9.70234 28.8475 9.44702C28.5922 8.68106 28.0815 8.17042 27.4432 7.65978C26.8049 7.2768 26.039 7.02148 25.273 7.02148C24.5071 7.02148 23.7411 7.2768 23.1028 7.65978C22.4645 8.04276 21.9539 8.68106 21.6986 9.44702C21.5709 9.70234 21.4432 9.95765 21.1879 10.213C20.9326 10.4683 20.6773 10.596 20.422 10.7236C17.4858 11.7449 14.9326 13.6598 13.1454 16.0853C11.3581 18.6385 10.3369 21.5747 10.3369 24.6385V37.4045C10.3369 38.2981 9.95387 39.1917 9.31557 39.83C8.67728 40.4683 7.78366 40.8513 6.89004 40.8513C6.63472 40.8513 6.50706 40.8513 6.25174 40.9789C5.99643 41.1066 5.86877 41.2342 5.74111 41.3619C5.61345 41.4896 5.48579 41.7449 5.35813 41.8725C5.23047 42.1279 5.23047 42.2555 5.23047 42.5108C5.23047 42.8938 5.35813 43.4045 5.74111 43.6598C5.99643 43.9151 6.50706 44.1704 6.89004 44.1704H43.656C44.039 44.1704 44.5496 44.0428 44.8049 43.6598C45.0603 43.4045 45.3156 42.8938 45.3156 42.5108C45.3156 42.1279 45.1879 41.6172 44.8049 41.3619C44.5496 41.1066 44.1666 40.9789 43.656 40.9789Z" fill="url(#paint1_linear_178_13)"/>
<path d="M35.9964 7.5317C37.9113 8.04234 39.8262 9.06361 41.2305 10.5955C42.6347 12.1274 43.5283 14.0423 43.656 16.2125C43.656 16.4679 43.7837 16.5955 43.9113 16.8508C44.039 16.9785 44.2943 17.1062 44.5496 17.1062C44.8049 17.1062 44.9326 16.9785 45.1879 16.8508C45.3156 16.7232 45.4432 16.4679 45.4432 16.2125C45.1879 13.787 44.1666 11.4891 42.6347 9.70191C40.9752 7.91468 38.8049 6.63808 36.5071 6.12744H36.3794C36.1241 6.12744 35.9964 6.2551 35.8688 6.38276C35.3581 6.2551 35.3581 6.38276 35.2305 6.63808C35.2305 6.8934 35.2305 7.02106 35.3581 7.27638C35.6134 7.40404 35.7411 7.5317 35.9964 7.5317Z" fill="url(#paint2_linear_178_13)"/>
<path d="M36.8915 2.04255C40.083 2.68085 42.8915 4.46809 45.0617 6.76596C47.2319 9.19149 48.5085 12.2553 48.8915 15.4468C48.8915 15.5745 48.8915 15.7021 49.0192 15.7021C49.0192 15.8298 49.1468 15.8298 49.2745 15.9574C49.4021 16.0851 49.4021 16.0851 49.5298 16.0851C49.6575 16.0851 49.7851 16.0851 49.9128 16.0851C50.0404 16.0851 50.1681 16.0851 50.2958 15.9574C50.4234 15.9574 50.4234 15.8298 50.5511 15.7021C50.6787 15.5745 50.6787 15.5745 50.6787 15.4468C50.6787 15.3192 50.6787 15.1915 50.6787 15.0638C50.2958 11.4894 48.8915 8.04255 46.466 5.3617C44.0404 2.68085 40.8489 0.765958 37.4021 0H37.2745C37.0192 0 36.8915 0.12766 36.6362 0.255319C36.5085 0.382979 36.3809 0.638298 36.3809 0.765958C36.3809 0.893617 36.3809 1.14894 36.5085 1.40426C36.5085 1.91489 36.7638 2.04255 36.8915 2.04255Z" fill="url(#paint3_linear_178_13)"/>
<path d="M14.6773 7.53186C14.9326 7.53186 15.0603 7.4042 15.1879 7.14888C15.3156 7.02123 15.3156 6.76591 15.3156 6.51059C15.3156 6.25527 15.1879 6.12761 15.0603 5.99995C14.9326 5.87229 14.6773 5.74463 14.422 5.74463H14.2943C11.8688 6.38293 9.69855 7.65952 8.03898 9.44676C6.3794 11.234 5.35813 13.5319 5.23047 15.9574C5.23047 16.2127 5.23047 16.468 5.48579 16.5957C5.61345 16.7234 5.61345 16.7234 5.74111 16.851C5.74111 16.851 5.86877 16.9787 5.99643 16.9787C6.12409 16.9787 6.25175 16.9787 6.37941 16.9787C6.50706 16.9787 6.63472 16.851 6.63472 16.851C6.76238 16.7234 6.76238 16.7234 6.89004 16.5957C6.89004 16.468 7.0177 16.3404 7.0177 16.3404C7.14536 14.1702 8.03898 12.1276 9.44323 10.5957C10.7198 9.06378 12.6347 8.0425 14.6773 7.53186Z" fill="url(#paint4_linear_178_13)"/>
<path d="M13.6576 2.04239C13.9129 2.04239 14.0406 1.91473 14.1683 1.65941C14.2959 1.53175 14.2959 1.27643 14.2959 1.02111C14.2959 0.765791 14.1683 0.638132 14.0406 0.510472C13.9129 0.510472 13.6576 0.382812 13.53 0.382812H13.4023C9.82784 1.14877 6.63634 3.06366 4.21081 5.74451C1.78528 8.42537 0.381026 11.8722 -0.00195312 15.4466C-0.00195312 15.5743 -0.00195312 15.702 -0.00195312 15.8296C-0.00195312 15.9573 0.125706 16.0849 0.125706 16.0849C0.253366 16.2126 0.253366 16.2126 0.381026 16.3403C0.508685 16.3403 0.636345 16.4679 0.636345 16.4679C0.764004 16.4679 0.891664 16.4679 1.01932 16.4679C1.14698 16.4679 1.27464 16.3403 1.27464 16.3403C1.4023 16.2126 1.4023 16.2126 1.52996 16.0849C1.52996 15.9573 1.65762 15.8296 1.65762 15.8296C1.91294 12.6381 3.3172 9.5743 5.48741 7.14877C7.65762 4.46792 10.4661 2.80834 13.6576 2.04239Z" fill="url(#paint5_linear_178_13)"/>
<path d="M65.1582 17.3178C65.1582 11.6774 69.7306 7.10498 75.371 7.10498H155.615C161.256 7.10498 165.828 11.6774 165.828 17.3178V35.0736C165.828 40.7139 161.256 45.2864 155.615 45.2864H75.371C69.7306 45.2864 65.1582 40.7139 65.1582 35.0737V17.3178Z" fill="black"/>
<path d="M140.553 36.5593V15.8315H148.192L153.522 35.9671V15.8315H157.372V36.5593H149.555L144.402 16.5718V36.5593H140.553Z" fill="white"/>
<path d="M133.143 36.5593V32.858L133.143 19.5329V15.8315H137.14V19.5329L137.14 32.858V36.5593H133.143Z" fill="white"/>
<path d="M126.501 36.5593L125.227 31.792H117.055L115.781 36.5593H111.725L117.292 15.8315H125.05L130.557 36.5593H126.501ZM118.091 27.9425H124.191L121.141 16.5718L118.091 27.9425Z" fill="white"/>
<path d="M105.655 36.5593V27.8536H97.2162V36.5593H93.2188V15.8315H97.2162V24.0042H105.655V15.8315H109.653V36.5593H105.655Z" fill="white"/>
<path d="M82.386 36.8262C77.1744 36.8262 73.6211 33.6282 73.6211 27.9725V24.4192C73.6211 18.7634 77.1744 15.5654 82.386 15.5654C87.5087 15.5654 91.0028 18.4673 91.1509 23.5012H87.1533C87.0349 20.8658 85.4063 19.4149 82.386 19.4149C79.2769 19.4149 77.6186 21.1324 77.6186 24.4192V27.9725C77.6186 31.2593 79.2769 33.1248 82.386 33.1248C85.3175 33.1248 86.9758 31.6442 87.1533 29.1273H91.1509C90.9139 34.0428 87.4199 36.8262 82.386 36.8262Z" fill="white"/>
<defs>
<linearGradient id="paint0_linear_178_13" x1="33.3279" y1="35.4937" x2="23.546" y2="52.1583" gradientUnits="userSpaceOnUse">
<stop stop-color="#FF94A6"/>
<stop offset="0.32" stop-color="#E03DC1"/>
<stop offset="1" stop-color="#8247E5"/>
</linearGradient>
<linearGradient id="paint1_linear_178_13" x1="38.0431" y1="17.0428" x2="17.3817" y2="46.4628" gradientUnits="userSpaceOnUse">
<stop stop-color="#FF94A6"/>
<stop offset="0.32" stop-color="#E03DC1"/>
<stop offset="1" stop-color="#8247E5"/>
</linearGradient>
<linearGradient id="paint2_linear_178_13" x1="54.707" y1="1.83144" x2="4.50356" y2="35.2248" gradientUnits="userSpaceOnUse">
<stop stop-color="#FF94A6"/>
<stop offset="0.32" stop-color="#E03DC1"/>
<stop offset="1" stop-color="#8247E5"/>
</linearGradient>
<linearGradient id="paint3_linear_178_13" x1="54.2408" y1="1.12782" x2="4.03475" y2="34.5213" gradientUnits="userSpaceOnUse">
<stop stop-color="#FF94A6"/>
<stop offset="0.32" stop-color="#E03DC1"/>
<stop offset="1" stop-color="#8247E5"/>
</linearGradient>
<linearGradient id="paint4_linear_178_13" x1="45.2916" y1="-12.3236" x2="-4.91438" y2="21.0698" gradientUnits="userSpaceOnUse">
<stop stop-color="#FF94A6"/>
<stop offset="0.32" stop-color="#E03DC1"/>
<stop offset="1" stop-color="#8247E5"/>
</linearGradient>
<linearGradient id="paint5_linear_178_13" x1="42.8218" y1="-16.0394" x2="-7.36507" y2="17.3458" gradientUnits="userSpaceOnUse">
<stop stop-color="#FF94A6"/>
<stop offset="0.32" stop-color="#E03DC1"/>
<stop offset="1" stop-color="#8247E5"/>
</linearGradient>
</defs>
</svg>
