<svg width="1440" height="161" viewBox="0 0 1440 161" fill="none" xmlns="http://www.w3.org/2000/svg">
<path fill-rule="evenodd" clip-rule="evenodd" d="M148.966 149C148.966 155.627 143.593 161 136.966 161H99.3103H61.6552C55.0278 161 49.6552 155.627 49.6552 149V111H12C5.37258 111 0 105.627 0 99V61V23C0 16.3726 5.37259 11 12 11H49.6552H99.3103H148.966H198.621H248.276H297.931H347.586H397.241H446.897H496.552H546.207H595.862H645.517H695.172H744.828H794.483H844.138H893.793H943.448H993.103H1042.76H1092.41H1142.07H1191.72H1241.38H1291.03H1340.69H1390.34H1428C1434.63 11 1440 16.3726 1440 23V61V99C1440 105.627 1434.63 111 1428 111H1402.34C1395.72 111 1390.34 116.373 1390.34 123V149C1390.34 155.627 1384.97 161 1378.34 161H1352.69C1346.06 161 1340.69 155.627 1340.69 149V111L1340.69 73C1340.69 66.3726 1335.32 61 1328.69 61H1303.03C1296.41 61 1291.03 66.3726 1291.03 73V99C1291.03 105.627 1285.66 111 1279.03 111H1241.38V149C1241.38 155.627 1236.01 161 1229.38 161H1191.72H1154.07C1147.44 161 1142.07 155.627 1142.07 149V123C1142.07 116.373 1136.7 111 1130.07 111H1104.41C1097.79 111 1092.41 105.627 1092.41 99V73C1092.41 66.3726 1087.04 61 1080.41 61H1054.76C1048.13 61 1042.76 66.3726 1042.76 73V99C1042.76 105.627 1037.39 111 1030.76 111H993.103V149C993.103 155.627 987.731 161 981.103 161H943.448H905.793C899.166 161 893.793 155.627 893.793 149V123C893.793 116.373 888.421 111 881.793 111H856.138C849.511 111 844.138 116.373 844.138 123V149C844.138 155.627 838.765 161 832.138 161H806.483C799.855 161 794.483 155.627 794.483 149L794.483 123C794.483 116.373 789.11 111 782.483 111H756.828C750.2 111 744.828 105.627 744.828 99V73C744.828 66.3726 739.455 61 732.828 61H707.172C700.545 61 695.172 66.3726 695.172 73V99C695.172 105.627 689.8 111 683.172 111H657.517C650.89 111 645.517 116.373 645.517 123V149C645.517 155.627 640.145 161 633.517 161H607.862C601.235 161 595.862 155.627 595.862 149V123C595.862 116.373 590.489 111 583.862 111H546.207H508.552C501.924 111 496.552 105.627 496.552 99V73C496.552 66.3726 491.179 61 484.552 61H446.897V61C444.154 61 441.931 63.2232 441.931 65.9655V99C441.931 105.627 447.304 111 453.931 111H479.586C486.214 111 491.586 116.373 491.586 123V149C491.586 155.627 486.214 161 479.586 161H441.931H392.276H354.621C347.993 161 342.621 155.627 342.621 149V123C342.621 116.373 337.248 111 330.621 111H304.966C298.338 111 292.966 105.627 292.966 99V73C292.966 66.3726 287.593 61 280.966 61H248.276H210.621C203.993 61 198.621 66.3726 198.621 73V99C198.621 105.627 193.248 111 186.621 111H160.966C154.338 111 148.966 116.373 148.966 123V149ZM993.103 111V73C993.103 66.3726 987.731 61 981.103 61H955.448C948.821 61 943.448 66.3726 943.448 73V99C943.448 105.627 948.821 111 955.448 111H993.103ZM1241.38 111V73C1241.38 66.3726 1236.01 61 1229.38 61H1203.72C1197.1 61 1191.72 66.3726 1191.72 73V99C1191.72 105.627 1197.1 111 1203.72 111H1241.38ZM49.6552 111H87.3103C93.9378 111 99.3103 105.627 99.3103 99V73C99.3103 66.3726 93.9378 61 87.3103 61H61.6552C55.0278 61 49.6552 66.3726 49.6552 73V111Z" fill="#F19AFF"/>
<path fill-rule="evenodd" clip-rule="evenodd" d="M148.966 138C148.966 144.627 143.593 150 136.966 150H99.3103H61.6552C55.0278 150 49.6552 144.627 49.6552 138V100H12C5.37258 100 0 94.6274 0 88V50V12C0 5.37258 5.37259 0 12 0H49.6552H99.3103H148.966H198.621H248.276H297.931H347.586H397.241H446.897H496.552H546.207H595.862H645.517H695.172H744.828H794.483H844.138H893.793H943.448H993.103H1042.76H1092.41H1142.07H1191.72H1241.38H1291.03H1340.69H1390.34H1428C1434.63 0 1440 5.37258 1440 12V50V88C1440 94.6274 1434.63 100 1428 100H1402.34C1395.72 100 1390.34 105.373 1390.34 112V138C1390.34 144.627 1384.97 150 1378.34 150H1352.69C1346.06 150 1340.69 144.627 1340.69 138V100L1340.69 62C1340.69 55.3726 1335.32 50 1328.69 50H1303.03C1296.41 50 1291.03 55.3726 1291.03 62V88C1291.03 94.6274 1285.66 100 1279.03 100H1241.38V138C1241.38 144.627 1236.01 150 1229.38 150H1191.72H1154.07C1147.44 150 1142.07 144.627 1142.07 138V112C1142.07 105.373 1136.7 100 1130.07 100H1104.41C1097.79 100 1092.41 94.6274 1092.41 88V62C1092.41 55.3726 1087.04 50 1080.41 50H1054.76C1048.13 50 1042.76 55.3726 1042.76 62V88C1042.76 94.6274 1037.39 100 1030.76 100H993.103V138C993.103 144.627 987.731 150 981.103 150H943.448H905.793C899.166 150 893.793 144.627 893.793 138V112C893.793 105.373 888.421 100 881.793 100H856.138C849.511 100 844.138 105.373 844.138 112V138C844.138 144.627 838.765 150 832.138 150H806.483C799.855 150 794.483 144.627 794.483 138L794.483 112C794.483 105.373 789.11 100 782.483 100H756.828C750.2 100 744.828 94.6274 744.828 88V62C744.828 55.3726 739.455 50 732.828 50H707.172C700.545 50 695.172 55.3726 695.172 62V88C695.172 94.6274 689.8 100 683.172 100H657.517C650.89 100 645.517 105.373 645.517 112V138C645.517 144.627 640.145 150 633.517 150H607.862C601.235 150 595.862 144.627 595.862 138V112C595.862 105.373 590.489 100 583.862 100H546.207H508.552C501.924 100 496.552 94.6274 496.552 88V62C496.552 55.3726 491.179 50 484.552 50H446.897V50C444.154 50 441.931 52.2232 441.931 54.9655V88C441.931 94.6274 447.304 100 453.931 100H479.586C486.214 100 491.586 105.373 491.586 112V138C491.586 144.627 486.214 150 479.586 150H441.931H392.276H354.621C347.993 150 342.621 144.627 342.621 138V112C342.621 105.373 337.248 100 330.621 100H304.966C298.338 100 292.966 94.6274 292.966 88V62C292.966 55.3726 287.593 50 280.966 50H248.276H210.621C203.993 50 198.621 55.3726 198.621 62V88C198.621 94.6274 193.248 100 186.621 100H160.966C154.338 100 148.966 105.373 148.966 112V138ZM993.103 100V62C993.103 55.3726 987.731 50 981.103 50H955.448C948.821 50 943.448 55.3726 943.448 62V88C943.448 94.6274 948.821 100 955.448 100H993.103ZM1241.38 100V62C1241.38 55.3726 1236.01 50 1229.38 50H1203.72C1197.1 50 1191.72 55.3726 1191.72 62V88C1191.72 94.6274 1197.1 100 1203.72 100H1241.38ZM49.6552 100H87.3103C93.9378 100 99.3103 94.6274 99.3103 88V62C99.3103 55.3726 93.9378 50 87.3103 50H61.6552C55.0278 50 49.6552 55.3726 49.6552 62V100Z" fill="black"/>
</svg>
